<?xml version="1.0" encoding="utf-8"?>
<!-- Generator: Adobe Illustrator 17.1.0, SVG Export Plug-In . SVG Version: 6.00 Build 0)  -->
<!DOCTYPE svg PUBLIC "-//W3C//DTD SVG 1.1//EN" "http://www.w3.org/Graphics/SVG/1.1/DTD/svg11.dtd">
<svg version="1.1" id="Layer_1" xmlns="http://www.w3.org/2000/svg" xmlns:xlink="http://www.w3.org/1999/xlink" x="0px" y="0px"
	 viewBox="114.3 24.9 576.2 208.3" enable-background="new 114.3 24.9 576.2 208.3" xml:space="preserve">
<g>
	<path fill="#996600" d="M136.6,217.7c-1.3,0.7-3.2,1.1-5.5,1.1c-6.2,0-12.3-5-12.3-19.8c0-16.1,7.4-20.6,12.9-20.6
		c2.2,0,3.8,0.4,4.7,0.9l-0.8,2.2c-1-0.5-1.9-0.9-4.2-0.9c-4.1,0-9.8,4.4-9.8,17.9c0,13.9,5,18,10,18c1.9,0,3.5-0.5,4.4-1
		L136.6,217.7z"/>
	<path fill="#996600" d="M140.9,177.7h2.5v15.6h0.1c0.6-1,1.5-1.9,2.4-2.5c1-0.6,2-1,3.7-1c2.6,0,6.2,1.8,6.2,9v19.8h-2.5v-18.9
		c0-3.9-0.9-7.7-4.5-7.7c-2.6,0-4.5,2-5.3,5.7c-0.1,0.7-0.1,1.4-0.1,2.1v18.8h-2.5V177.7z"/>
	<path fill="#996600" d="M178.2,204.3c0,10.4-4.2,14.6-8.5,14.6c-4,0-8.2-4.2-8.2-14.6c0-10.4,4.2-14.6,8.6-14.6
		C174.1,189.7,178.2,193.9,178.2,204.3z M164.1,204.3c0,4.6,0.9,12.4,5.8,12.4c4.8,0,5.7-7.8,5.7-12.4s-0.9-12.4-5.8-12.4
		C165,192,164.1,199.7,164.1,204.3z"/>
	<path fill="#996600" d="M199,204.3c0,10.4-4.2,14.6-8.5,14.6c-4,0-8.2-4.2-8.2-14.6c0-10.4,4.2-14.6,8.6-14.6
		C194.9,189.7,199,193.9,199,204.3z M185,204.3c0,4.6,0.9,12.4,5.8,12.4c4.8,0,5.7-7.8,5.7-12.4s-0.9-12.4-5.8-12.4
		C185.8,192,185,199.7,185,204.3z"/>
	<path fill="#996600" d="M203.5,215.1c0.9,0.6,2.5,1.5,4.2,1.5c2.9,0,4.9-2,4.9-5.1c0-2.5-0.8-4.4-3.8-6.6c-3.1-2.2-5.7-4.4-5.7-8
		c0-4.3,3.3-7.1,6.9-7.1c2.1,0,3.7,0.8,4.6,1.5l-1.1,2.1c-1.1-0.8-2.2-1.4-3.7-1.4c-2.7,0-4.2,2.2-4.2,4.4c0,2.3,0.8,3.6,3.7,5.7
		c2.7,1.9,6,4.3,6,8.7c0,5.6-3.7,8.1-7.6,8.1c-1.9,0-3.9-0.6-5.1-1.7L203.5,215.1z"/>
	<path fill="#996600" d="M221.6,203.3c0,11.4,3.9,13.3,7.1,13.3c1.8,0,3.3-0.5,4.2-1.1l0.6,1.9c-1.4,0.9-3.4,1.4-5.3,1.4
		c-6.2,0-9.3-5.8-9.3-14.4c0-9,3.2-14.7,8.4-14.7c5.6,0,7.1,6.9,7.1,11.9c0,0.5,0,1.1,0,1.7H221.6z M231.8,201.2
		c0.1-7-2.8-9.3-4.8-9.3c-3.3,0-5.1,4.7-5.4,9.3H231.8z"/>
	<path fill="#996600" d="M252.2,184v6.2h5.4v2.2h-5.4v19.3c0,3.9,1.3,5,3,5c0.7,0,1.3-0.1,1.7-0.2l0.3,1.9c-0.6,0.3-1.4,0.4-2.5,0.4
		c-1.5,0-2.9-0.5-3.8-1.7c-0.9-1.2-1.2-2.9-1.2-6.5v-18.3h-3.5v-2.2h3.5v-4.7L252.2,184z"/>
	<path fill="#996600" d="M261.8,177.7h2.5v15.6h0.1c0.6-1,1.5-1.9,2.4-2.5c1-0.6,2-1,3.7-1c2.6,0,6.2,1.8,6.2,9v19.8h-2.5v-18.9
		c0-3.9-0.9-7.7-4.5-7.7c-2.6,0-4.5,2-5.3,5.7c-0.1,0.7-0.1,1.4-0.1,2.1v18.8h-2.5V177.7z"/>
	<path fill="#996600" d="M284.9,203.3c0,11.4,3.9,13.3,7.1,13.3c1.8,0,3.3-0.5,4.2-1.1l0.6,1.9c-1.4,0.9-3.4,1.4-5.3,1.4
		c-6.2,0-9.3-5.8-9.3-14.4c0-9,3.2-14.7,8.4-14.7c5.6,0,7.1,6.9,7.1,11.9c0,0.5,0,1.1,0,1.7H284.9z M295.2,201.2
		c0.1-7-2.8-9.3-4.8-9.3c-3.3,0-5.1,4.7-5.4,9.3H295.2z"/>
	<path fill="#996600" d="M312.4,179.3c1.6-0.5,3.2-0.8,5.7-0.8c3.1,0,5.8,1,7.5,2.8c1.7,1.8,2.7,4.4,2.7,8c0,3.2-0.6,5.3-1.8,7.2
		c-2,3.2-5.5,4.8-9.2,4.8c-0.9,0-1.6,0-2.3-0.1v17.2h-2.5V179.3z M314.9,199c0.6,0.1,1.2,0.2,2.1,0.2c4.8,0,8.5-3,8.5-9.8
		c0-4.5-1.8-8.7-7.8-8.7c-1.2,0-2.2,0.1-2.9,0.3V199z"/>
	<path fill="#996600" d="M333.2,203.3c0,11.4,3.9,13.3,7.1,13.3c1.8,0,3.3-0.5,4.2-1.1l0.6,1.9c-1.4,0.9-3.4,1.4-5.3,1.4
		c-6.2,0-9.3-5.8-9.3-14.4c0-9,3.2-14.7,8.4-14.7c5.6,0,7.1,6.9,7.1,11.9c0,0.5,0,1.1,0,1.7H333.2z M343.5,201.2
		c0.1-7-2.8-9.3-4.8-9.3c-3.3,0-5.1,4.7-5.4,9.3H343.5z"/>
	<path fill="#996600" d="M351.3,196.7c0-2.1-0.2-4.8-0.2-6.5h2.4l0.1,4.6h0.1c0.7-2.5,3.2-5.1,6.1-5.1c0.2,0,0.4,0,0.5,0v2.8
		c-0.1,0-0.3,0-0.5,0c-3.7,0-5.8,3.6-6,7.1c-0.1,0.8-0.1,1.6-0.1,2.4v16.5h-2.5V196.7z"/>
	<path fill="#996600" d="M366.4,218.5v-26.1H363v-2.2h3.4v-2.1c0-2.9,0.4-6.2,2.2-8.5c1.7-1.9,3.8-2.3,5-2.3c1.3,0,2.2,0.3,2.9,0.7
		l-0.7,2.1c-0.5-0.2-1.3-0.5-2.5-0.5c-3.7,0-4.4,4.2-4.4,8.6v2.1h5.4v2.2h-5.4v26.1H366.4z"/>
	<path fill="#996600" d="M378.3,203.3c0,11.4,3.9,13.3,7.1,13.3c1.8,0,3.3-0.5,4.2-1.1l0.6,1.9c-1.4,0.9-3.4,1.4-5.3,1.4
		c-6.2,0-9.3-5.8-9.3-14.4c0-9,3.2-14.7,8.4-14.7c5.6,0,7.1,6.9,7.1,11.9c0,0.5,0,1.1,0,1.7H378.3z M388.5,201.2
		c0.1-7-2.8-9.3-4.8-9.3c-3.3,0-5.1,4.7-5.4,9.3H388.5z"/>
	<path fill="#996600" d="M409,217.7c-1.1,0.7-2.7,1.2-4.6,1.2c-5.5,0-9.4-5-9.4-14.4c0-7.7,3.5-14.7,10.1-14.7c1.4,0,3,0.4,3.9,1
		l-0.8,2.2c-0.6-0.4-1.8-0.9-3.5-0.9c-5.1,0-7,6.6-7,12.6c0,7.5,2.8,12,7.2,12c1.3,0,2.4-0.3,3.5-0.9L409,217.7z"/>
	<path fill="#996600" d="M417.6,184v6.2h5.4v2.2h-5.4v19.3c0,3.9,1.3,5,3,5c0.7,0,1.3-0.1,1.7-0.2l0.3,1.9c-0.6,0.3-1.4,0.4-2.5,0.4
		c-1.5,0-2.9-0.5-3.8-1.7c-0.9-1.2-1.2-2.9-1.2-6.5v-18.3h-3.5v-2.2h3.5v-4.7L417.6,184z"/>
	<path fill="#996600" d="M436.5,179.3c1.6-0.5,3.2-0.8,5.7-0.8c3.1,0,5.8,1,7.5,2.8c1.7,1.8,2.7,4.4,2.7,8c0,3.2-0.6,5.3-1.8,7.2
		c-2,3.2-5.5,4.8-9.2,4.8c-0.9,0-1.6,0-2.3-0.1v17.2h-2.5V179.3z M439,199c0.6,0.1,1.2,0.2,2.1,0.2c4.8,0,8.5-3,8.5-9.8
		c0-4.5-1.8-8.7-7.8-8.7c-1.2,0-2.2,0.1-2.9,0.3V199z"/>
	<path fill="#996600" d="M468.2,212.1c0,2.1,0,4.6,0.2,6.4h-2.4l-0.2-3.1h-0.2c-1.1,2.2-2.9,3.6-5.3,3.6c-3.5,0-6.2-2.9-6.2-7.8
		c0-6.8,5.1-10,11.6-10.1V200c0-4.8-0.8-8.1-4.9-8.1c-1.4,0-2.9,0.5-4,1.4l-0.7-1.9c0.9-0.8,3.1-1.7,5.2-1.7c3.8,0,6.9,2.2,6.9,9
		V212.1z M465.7,203.3c-2.2,0-8.9,0.2-8.9,7.7c0,4.2,2.1,5.7,3.9,5.7c2.4,0,4.3-1.9,4.8-5.4c0.1-0.6,0.1-1.3,0.1-1.8V203.3z"/>
	<path fill="#996600" d="M478.3,182.9c0,1.4-0.6,2.2-2,2.2c-1.1,0-1.8-0.8-1.8-2.2c0-1.3,0.8-2.2,1.9-2.2
		C477.7,180.8,478.3,181.6,478.3,182.9z M475.2,218.5v-28.3h2.5v28.3H475.2z"/>
	<path fill="#996600" d="M484.6,196.7c0-2.1-0.2-4.8-0.2-6.5h2.4l0.1,4.6h0.1c0.7-2.5,3.2-5.1,6.1-5.1c0.2,0,0.4,0,0.5,0v2.8
		c-0.1,0-0.3,0-0.5,0c-3.7,0-5.8,3.6-6,7.1c-0.1,0.8-0.1,1.6-0.1,2.4v16.5h-2.5V196.7z"/>
	<path fill="#996600" d="M510.1,184v6.2h5.4v2.2h-5.4v19.3c0,3.9,1.3,5,3,5c0.7,0,1.3-0.1,1.7-0.2l0.3,1.9c-0.6,0.3-1.4,0.4-2.5,0.4
		c-1.5,0-2.9-0.5-3.8-1.7c-0.9-1.2-1.2-2.9-1.2-6.5v-18.3H504v-2.2h3.5v-4.7L510.1,184z"/>
	<path fill="#996600" d="M534.4,204.3c0,10.4-4.2,14.6-8.5,14.6c-4,0-8.2-4.2-8.2-14.6c0-10.4,4.2-14.6,8.6-14.6
		C530.3,189.7,534.4,193.9,534.4,204.3z M520.3,204.3c0,4.6,0.9,12.4,5.8,12.4c4.8,0,5.7-7.8,5.7-12.4S530.9,192,526,192
		C521.2,192,520.3,199.7,520.3,204.3z"/>
	<path fill="#996600" d="M548.3,214.9c1.2,0.8,3.4,1.7,5.2,1.7c4.5,0,7.4-3.2,7.4-8.1c0-4.2-2.4-6.9-5.3-9.4
		c-1.7-1.5-7.5-4.9-7.5-11c0-5.8,4.2-9.7,9.3-9.7c2.4,0,4.3,0.8,5.1,1.5l-1,2.2c-0.9-0.7-2.6-1.4-4.5-1.4c-4.2,0-6.2,3.5-6.2,6.7
		c0,4.9,2.6,6.7,6.1,9.4c4.5,3.5,6.7,7,6.7,11.5c0,6.6-4.5,10.6-9.9,10.6c-2.4,0-5.1-0.9-6.1-1.8L548.3,214.9z"/>
	<path fill="#996600" d="M583.7,211.4c0,3.2,0.2,5.4,0.2,7.1h-2.3l-0.2-2.9h-0.1c-0.6,1.1-2.7,3.4-5.8,3.4c-4.7,0-6.5-3.8-6.5-10.4
		v-18.3h2.5V208c0,4.9,0.7,8.8,4.4,8.8c3.5,0,4.9-3.4,5.1-5c0.1-0.9,0.1-1.7,0.1-2.6v-19h2.5V211.4z"/>
	<path fill="#996600" d="M593.8,182.9c0,1.4-0.6,2.2-2,2.2c-1.1,0-1.8-0.8-1.8-2.2c0-1.3,0.8-2.2,1.9-2.2
		C593.1,180.8,593.8,181.6,593.8,182.9z M590.6,218.5v-28.3h2.5v28.3H590.6z"/>
	<path fill="#996600" d="M603.4,184v6.2h5.4v2.2h-5.4v19.3c0,3.9,1.3,5,3,5c0.7,0,1.3-0.1,1.7-0.2l0.3,1.9c-0.6,0.3-1.4,0.4-2.5,0.4
		c-1.5,0-2.9-0.5-3.8-1.7c-0.9-1.2-1.2-2.9-1.2-6.5v-18.3h-3.5v-2.2h3.5v-4.7L603.4,184z"/>
	<path fill="#996600" d="M626,218.5v-17.8l-8.8-21.9h2.7l4,10.3c1.1,2.9,2.4,6.1,3.5,9.3h0.1c1-3.2,2.3-6.3,3.5-9.5l4-10.1h2.7
		l-9.3,21.8v17.9H626z"/>
	<path fill="#996600" d="M653.3,204.3c0,10.4-4.2,14.6-8.5,14.6c-4,0-8.2-4.2-8.2-14.6c0-10.4,4.2-14.6,8.6-14.6
		C649.1,189.7,653.3,193.9,653.3,204.3z M639.2,204.3c0,4.6,0.9,12.4,5.8,12.4c4.8,0,5.7-7.8,5.7-12.4s-0.9-12.4-5.8-12.4
		C640,192,639.2,199.7,639.2,204.3z"/>
	<path fill="#996600" d="M673.4,211.4c0,3.2,0.2,5.4,0.2,7.1h-2.3l-0.2-2.9H671c-0.6,1.1-2.7,3.4-5.8,3.4c-4.7,0-6.5-3.8-6.5-10.4
		v-18.3h2.5V208c0,4.9,0.7,8.8,4.4,8.8c3.5,0,4.9-3.4,5.1-5c0.1-0.9,0.1-1.7,0.1-2.6v-19h2.5V211.4z"/>
</g>
<g>
	<path fill="#FFFFFF" d="M114.4,146.9l5.3-7.3c10.9,4.5,21.4,6.8,31.6,6.8c6.8,0,13-0.9,18.7-2.8c5.6-1.9,10.1-4.4,13.3-7.6
		c3.2-3.2,4.9-6.7,4.9-10.5c0-3.7-1.5-7.1-4.4-10c-3-2.9-8.3-6.3-16-10.1c-7.5-3.8-12.1-6.1-13.7-7c-1.6-0.9-3.8-2.1-6.4-3.7
		c-4.7-3.1-7-6.8-7-11c0-7.6,6.6-15,19.7-22c3.7-2,7.9-3.8,12.6-5.4c4.7-1.6,9.4-2.8,13.9-3.6c4.6-0.8,8.8-1.2,12.8-1.2
		c5.8,0,10.4,0.8,13.8,2.5c3.3,1.7,5,4,5,6.9c0,3.6-2,7.5-6.1,11.7c-4,4.1-9.6,8-16.6,11.5l-7.7-3.3c4.8-2.4,8.8-4.9,12-7.3
		c3.3-2.4,5.8-4.8,7.6-7.1c1.8-2.3,2.7-4.4,2.7-6.3c0-1.3-0.5-2.4-1.4-3.3c-1-0.9-2.3-1.6-4.1-2.1c-1.8-0.5-4-0.7-6.7-0.7
		c-5,0-10.4,0.7-16.1,2.2c-5.8,1.5-11.2,3.4-16.2,5.9c-11.3,5.4-17,11.4-17,18c0,1.8,0.7,3.6,2,5.2c1.3,1.6,3.7,3.5,7.1,5.5
		c3.4,2,8.3,4.7,14.8,7.9c4.8,2.4,8.5,4.3,10.9,5.8c2.5,1.5,4.5,3.1,6.1,4.7c3.6,3.4,5.4,7.3,5.4,11.6c0,3.3-1.1,6.7-3.4,10
		c-2.3,3.4-5.5,6.6-9.7,9.5c-9.8,6.9-23.3,10.4-40.7,10.4C129.9,150.5,121,149.3,114.4,146.9z"/>
	<path fill="#FFFFFF" d="M207.6,149.5l25.6-99.6l10.1-3.7l-26.7,88.7c0.3-0.3,0.4-0.6,0.4-0.7l2.2-3.8c3.8-6.5,8.5-12.1,14.3-16.9
		c5.4-4.4,10.4-6.6,14.9-6.6c2.4,0,4.4,0.6,5.9,1.8c1.5,1.2,2.2,2.8,2.2,4.8c0,1.1-0.4,2.7-1.1,4.7l-1,3.1l-3,8.9l-0.9,2.8
		c-1,2.9-1.4,5.1-1.4,6.7c0,1.6,0.4,2.8,1.1,3.7c0.7,0.9,1.6,1.4,2.8,1.4c2,0,5.2-1.8,9.5-5.4l1.4,1l-0.9,0.8
		c-3.7,3.3-6.4,5.4-8.1,6.6c-1.8,1.1-3.4,1.7-4.8,1.7c-2,0-3.7-0.8-5.1-2.4c-1.4-1.6-2.1-3.5-2.1-5.6c0-1.3,0.4-3.6,1.3-6.9
		l3.7-15.4c0.6-2.3,0.9-4,0.9-5.1c0-1-0.4-1.8-1.1-2.3c-0.7-0.5-1.7-0.8-2.9-0.8c-2.4,0-5.1,1.1-8.2,3.2c-3.1,2.1-6.2,5-9.3,8.8
		c-3.1,3.7-5.8,7.7-8.1,12c-2.3,4.2-4,8.6-5.2,13.1L207.6,149.5z"/>
	<path fill="#FFFFFF" d="M323.8,105.7l-9.1,26.6c-1,2.9-1.4,5.2-1.4,6.8c0,1.5,0.4,2.7,1.3,3.8c0.8,1.1,1.9,1.6,3.1,1.6
		c1.9,0,4.9-1.7,9.3-5.2l1.3,1l-1.1,0.9c-3.4,3-6,5-7.9,6.2c-1.8,1.2-3.4,1.8-4.8,1.8c-2.1,0-3.8-0.8-5.3-2.4
		c-1.5-1.6-2.3-3.5-2.3-5.6c0-1.6,0.8-5.1,2.3-10.6l0.8-2.8c-2.4,4.2-5.6,8.2-9.5,12c-6.7,6.4-13.1,9.6-19.2,9.6c-3.7,0-6.6-1-8.7-3
		c-2.1-2-3.2-4.7-3.2-8c0-4.6,1.7-9.3,5.2-14.3c3.4-5,7.7-9.1,12.8-12.3c5.1-3.2,10.1-4.8,14.9-4.8c5.1,0,8.9,1.4,11.4,4.2l1.1-2.8
		L323.8,105.7z M312.8,115c-0.8-1.8-2.1-3.3-3.9-4.3c-1.8-1-3.9-1.6-6.3-1.6c-2.8,0-5.8,1-9,2.9c-3.1,2-6,4.7-8.7,8.2
		c-2.1,2.8-3.8,5.8-5.2,9.2s-2.1,6.1-2.1,8.3c0,2.5,0.6,4.4,1.9,5.8c1.3,1.4,3,2.1,5.3,2.1c3,0,6-1,9.3-3.1c3.2-2.1,6.4-5.1,9.5-9
		c1.9-2.2,3.4-4.5,4.5-6.7c1.1-2.2,2.3-5.3,3.7-9.3L312.8,115z"/>
	<path fill="#FFFFFF" d="M369.5,46.2l-26.2,86.1c1.5-2.6,3.2-5.1,5.3-7.6c2.1-2.4,4.4-4.8,7-7.1c2.6-2.3,5.2-4.2,7.6-5.6
		c3.1-1.9,6.3-3.3,9.5-4.2c3.2-0.9,6.8-1.5,10.7-1.6l-1.7,5.8c-1.9-0.3-3.4-0.4-4.3-0.4c-7.6,0-14.7,2.9-21.2,8.7
		c2.6,5.3,5.4,10.1,8.4,14.4c1.7,2.5,3.1,4.5,4.4,5.9c1.3,1.5,2.4,2.6,3.5,3.2c1.1,0.7,2.1,1,3.1,1c2.4,0,5.5-1.5,9.3-4.4l0.8-0.7
		l1.3,1.1c-6.5,5.9-11.2,8.9-14.2,8.9c-2,0-3.9-0.7-5.6-2s-3.8-3.6-6.1-6.8c-4-5.6-7.4-10.9-9.9-15.9c-6,7.5-9.9,15.1-11.6,22.8
		l-6.3,1.5l25.8-99.5L369.5,46.2z"/>
	<path fill="#FFFFFF" d="M425,146.9l5.3-7.3c10.9,4.5,21.4,6.8,31.6,6.8c6.8,0,13-0.9,18.7-2.8c5.6-1.9,10.1-4.4,13.3-7.6
		c3.2-3.2,4.9-6.7,4.9-10.5c0-3.7-1.5-7.1-4.4-10c-3-2.9-8.3-6.3-16-10.1c-7.5-3.8-12.1-6.1-13.7-7c-1.6-0.9-3.8-2.1-6.4-3.7
		c-4.7-3.1-7-6.8-7-11c0-7.6,6.6-15,19.7-22c3.7-2,7.9-3.8,12.6-5.4c4.7-1.6,9.4-2.8,13.9-3.6c4.6-0.8,8.8-1.2,12.8-1.2
		c5.8,0,10.4,0.8,13.8,2.5c3.3,1.7,5,4,5,6.9c0,3.6-2,7.5-6.1,11.7c-4,4.1-9.6,8-16.6,11.5l-7.7-3.3c4.8-2.4,8.8-4.9,12-7.3
		c3.3-2.4,5.8-4.8,7.6-7.1c1.8-2.3,2.7-4.4,2.7-6.3c0-1.3-0.5-2.4-1.4-3.3c-1-0.9-2.3-1.6-4.1-2.1c-1.8-0.5-4-0.7-6.7-0.7
		c-5,0-10.4,0.7-16.1,2.2c-5.8,1.5-11.2,3.4-16.2,5.9c-11.3,5.4-17,11.4-17,18c0,1.8,0.7,3.6,2,5.2c1.3,1.6,3.7,3.5,7.1,5.5
		c3.4,2,8.3,4.7,14.8,7.9c4.8,2.4,8.5,4.3,10.9,5.8c2.5,1.5,4.5,3.1,6.1,4.7c3.6,3.4,5.4,7.3,5.4,11.6c0,3.3-1.1,6.7-3.4,10
		c-2.3,3.4-5.5,6.6-9.7,9.5c-9.8,6.9-23.3,10.4-40.7,10.4C440.5,150.5,431.6,149.3,425,146.9z"/>
	<path fill="#FFFFFF" d="M537,109.9l-7.3,24.2c-0.8,2.7-1.2,4.6-1.2,5.7c0,1.7,0.5,3.2,1.6,4.2c1.1,1.1,2.5,1.6,4.3,1.6
		c1.7,0,3.3-0.4,4.8-1.1c1.4-0.8,3.6-2.3,6.6-4.7l1.2-0.9l1.4,1.1c-3.8,3.5-7,6-9.5,7.4c-2.5,1.4-5,2.1-7.5,2.1
		c-3.1,0-5.5-0.8-7.4-2.3c-1.8-1.5-2.7-3.5-2.7-6c0-1.8,0.5-4.5,1.4-8l6.3-23.4h-9.3l0.7-2.5h9.3l5.4-19.7l9.3-2.8l-6.7,22.4h15.6
		l-0.7,2.5H537z"/>
	<path fill="#FFFFFF" d="M545.4,174.6l4.7-4.8c3.7,3,7.9,4.5,12.6,4.5c4.9,0,8.9-1.5,12-4.4c3-3,5.5-7.8,7.4-14.6l4.4-15.1
		c-7.1,6.3-13.5,9.4-19.2,9.4c-3.3,0-6-0.8-7.9-2.3c-1.9-1.6-2.8-3.6-2.8-6.3c0-1.7,0.3-3.7,0.9-5.8l6.6-26.1l9.3-3l-9.3,29.3
		c-0.8,2.4-1.2,4.2-1.2,5.3c0,1.7,0.7,3,2,4c1.3,1,3.1,1.6,5.3,1.6c2.4,0,5-0.8,7.9-2.4c2.9-1.6,6.1-3.9,9.6-7.1l8.3-27.8l9.1-3
		L590.9,149c-1.7,5.1-3.3,9.2-4.8,12.1c-1.5,2.9-3.3,5.3-5.3,7.3c-6.3,6.1-14,9.2-23,9.2C552.6,177.5,548.4,176.5,545.4,174.6z"/>
	<path fill="#FFFFFF" d="M647.8,46.2l-25.3,83.9l-0.9,2.8c-0.8,2.7-1.3,4.9-1.3,6.8c0,1.5,0.4,2.7,1.1,3.7c0.7,0.9,1.7,1.4,2.7,1.4
		c2,0,5.2-1.8,9.5-5.4l1.5,1l-1,0.8c-3.7,3.3-6.4,5.4-8.1,6.6c-1.7,1.1-3.3,1.7-4.8,1.7c-1.9,0-3.6-0.8-5.1-2.4
		c-1.4-1.6-2.2-3.5-2.2-5.6c0-1.5,0.4-3.8,1.3-6.9l22.3-84.8L647.8,46.2z"/>
	<path fill="#FFFFFF" d="M679.5,137.5l1.7,1.1c-4,4-7.9,6.9-11.7,8.6c-3.8,1.8-7.9,2.7-12.2,2.7c-5.2,0-9.4-1.3-12.5-3.9
		s-4.7-6.1-4.7-10.4c0-4.4,1.5-8.8,4.6-13.3c3.1-4.5,6.9-8.2,11.5-11.1c4.6-2.9,9.1-4.4,13.6-4.4c2.6,0,4.8,0.6,6.5,1.7
		c1.7,1.2,2.6,2.7,2.6,4.5c0,3.7-2.7,7.5-8.1,11.2c-5.4,3.7-12.8,6.9-22.1,9.5c-0.1,0.4-0.1,0.8-0.1,1.3c0,3.3,1.2,6.1,3.7,8.2
		c2.4,2.1,5.6,3.2,9.4,3.2c3,0,5.9-0.7,8.8-2.1C673.3,142.8,676.3,140.5,679.5,137.5z M648.7,131.9c6.9-2.3,12.3-4.9,16-7.8
		c2.5-1.9,4.5-4,6.1-6.3c1.5-2.2,2.3-4.2,2.3-6c0-2.3-1.4-3.4-4.1-3.4c-4.2,0-8.4,2.5-12.7,7.5C651.9,120.9,649.4,126.2,648.7,131.9
		z"/>
</g>
</svg>
