<?xml version="1.0" encoding="utf-8"?>
<!-- Generator: Adobe Illustrator 17.1.0, SVG Export Plug-In . SVG Version: 6.00 Build 0)  -->
<!DOCTYPE svg PUBLIC "-//W3C//DTD SVG 1.1//EN" "http://www.w3.org/Graphics/SVG/1.1/DTD/svg11.dtd">
<svg version="1.1" id="Layer_1" xmlns="http://www.w3.org/2000/svg" xmlns:xlink="http://www.w3.org/1999/xlink" x="0px" y="0px"
	 viewBox="0 0 558.938 159.987" enable-background="new 0 0 558.938 159.987" xml:space="preserve">
<path fill="#D1A049" d="M0,8.344l5,28c0,0,13.5,2,20,37.5c0,0,15,61.353,40,70.176c0,0,111.333,52.99,130-93.676c0,0,16-3,19-1
	c0,0,13,12.5,21,40c0,0,32,78.5,119,70c0,0,55.5-4.5,66.5-34c0,0,15-68.5,15-73.5c0,0,1.5-10.5,13.5-14l81.5,32
	c0,0,14.5-13,16.5-12.5s-16.5,44.5-16.5,44.5s0,18,7,10.5c0,0,28-54,20-75.5c0,0-30.5-28.5-105-32.5v-3.5
	c0,0-173.031-6.5-246.413,16.584c0,0-12.587,3.166-76.42-15.084C129.667,2.344,14.333-5.656,0,8.344z"/>
<path fill="#FFFFFF" d="M36,38.844c0,0,6,68.5,26,87c0,0,33,29.833,75.5,9.5c0,0,27-8,32.5-82c0,0,5-30.5-48-37.5
	C122,15.844,40.5,1.344,36,38.844z"/>
<path fill="#FFFFFF" d="M248,46.844c0,0,8.5,77.812,60.5,93.156c0,0,76.5,17.344,95.197-12.843c0,0,31.303-87.313-11.197-108.313
	C392.5,18.844,249.5-3.656,248,46.844z"/>
</svg>
